<?xml version="1.0" encoding="UTF-8" standalone="no"?>
<svg width="323px" height="232px" viewBox="0 0 323 232" version="1.1" xmlns="http://www.w3.org/2000/svg" xmlns:xlink="http://www.w3.org/1999/xlink">
    <!-- Generator: Sketch 3.8.3 (29802) - http://www.bohemiancoding.com/sketch -->
    <title>Logo</title>
    <desc>Created with Sketch.</desc>
    <defs></defs>
    <g id="02_Website" stroke="none" stroke-width="1" fill="none" fill-rule="evenodd" opacity="0.0539295709">
        <g id="Desktop-2" transform="translate(0.000000, -2222.000000)" fill="#F7F6ED">
            <g id="LOGO-PATTERN" transform="translate(-1.000000, 2222.000000)">
                <g id="Logo">
                    <path d="M115.336287,168.540246 C114.899696,169.366379 114.408484,170.290695 113.862652,171.3132 C112.283645,174.27114 110.330693,177.557691 108.003737,181.172952 C105.67678,184.788213 102.934337,188.485583 99.7763248,192.265174 C96.6183124,196.044764 93.1279301,199.495643 89.305073,202.617914 C85.482216,205.740184 81.3685511,208.328343 76.9639549,210.382469 C72.5593587,212.436594 67.9470678,213.463641 63.1269436,213.463641 C56.6447078,213.463641 51.1182691,212.272267 46.5474617,209.889481 C41.9766544,207.506696 38.2785112,204.425554 35.4529212,200.645963 C32.6273312,196.866373 30.5497226,192.552774 29.2200332,187.705038 C27.8903438,182.857302 27.1424047,178.050721 26.9761936,173.28515 C26.8099824,168.190919 27.7241302,162.932437 29.7186643,157.509546 C31.7131984,152.086655 34.4971938,147.074664 38.0707341,142.473423 C41.6442744,137.872183 46.0072523,133.887239 51.1597988,130.518474 C56.3123453,127.149708 62.0465448,124.80804 68.3625695,123.4934 C71.1881595,124.97237 74.0137071,126.204827 76.8392971,127.190807 C79.6648871,128.176787 82.074913,128.66977 84.0694471,128.66977 C86.5626148,128.66977 88.7233277,128.176787 90.5516506,127.190807 C92.3799735,126.204827 93.958956,124.97237 95.2886454,123.4934 C96.6183349,122.01443 97.5740348,120.453318 98.1557739,118.810018 C98.737513,117.166717 99.0283782,115.687769 99.0283782,114.373129 C99.0283782,112.565499 97.6156044,111.168714 94.7900144,110.182734 C91.9644244,109.196754 89.1388768,108.703771 86.3132868,108.703771 C84.3187527,108.703771 82.1580398,108.827017 79.8310833,109.073512 C77.5041269,109.320007 75.0109966,109.60758 72.3516178,109.93624 C69.0273943,107.14263 65.4954598,103.198768 61.7557083,98.1045373 C58.0159568,93.0103064 55.7305874,86.7658589 54.8995316,79.3710076 C53.9022645,69.6755358 54.9410688,60.6786016 58.0159755,52.3799351 C61.0908823,44.0812686 65.3292037,36.9330195 70.7310669,30.9349734 C76.1329302,24.9369274 82.3242036,20.2535918 89.305073,16.8848261 C96.2859424,13.5160605 103.266707,11.831703 110.247577,11.831703 C115.400123,11.831703 119.139818,13.2695692 121.466775,16.1453447 C123.793731,19.0211202 125.040296,23.0882275 125.206508,28.3467884 C125.206508,31.9620491 124.666329,35.782665 123.585957,39.8087507 C122.505584,43.8348364 120.843497,47.7376161 118.599646,51.5172068 C116.355795,55.2967975 113.5718,58.7065944 110.247577,61.7467 C106.923353,64.7868055 103.100553,67.1284733 98.7790627,68.7717736 C101.438442,71.072394 104.09778,72.7978335 106.757159,73.9481437 C109.416538,75.0984539 111.74346,75.9200917 113.737994,76.4130818 C116.06495,77.0704019 118.308767,77.3990571 120.469513,77.3990571 C123.295103,77.3990571 126.203755,75.9611909 129.195556,73.0854153 C132.187357,70.2096398 134.888248,66.5122696 137.29831,61.9931938 C139.708372,57.474118 141.702876,52.4210453 143.281883,46.8338243 C144.860889,41.2466033 145.567276,35.7416299 145.401065,30.3187389 C145.234853,27.3607984 144.445362,24.115329 143.032567,20.5822333 C141.619772,17.0491377 139.500611,13.7625864 136.675021,10.7224808 C133.849431,7.68237528 130.19284,5.13529803 125.705139,3.08117265 C121.217437,1.02704728 115.815655,0 109.49963,0 C100.025593,0 90.3439371,1.80760321 80.4543721,5.42286387 C70.5648071,9.03812453 61.6310904,14.1733609 53.652954,20.8287271 C45.6748175,27.4840933 39.1511267,35.4950621 34.0816858,44.8618738 C29.012245,54.2286855 26.6437712,64.6634859 26.9761936,76.166588 C26.9761936,79.9461787 27.7241326,83.7257127 29.2200332,87.5053034 C30.7159338,91.284894 32.710438,94.9001005 35.2036057,98.3510311 C37.6967733,101.801962 40.5638731,104.924185 43.804991,107.717796 C47.046109,110.511406 50.4949391,112.894156 54.151585,114.866117 C47.3369268,117.331067 40.6885795,120.494373 34.2063436,124.356128 C27.7241077,128.217884 21.948356,132.942301 16.8789151,138.529523 C11.8094742,144.116744 7.73736149,150.525519 4.66245473,157.75604 C1.58754797,164.986561 0.133221997,173.202939 0.299433173,182.405421 C0.465644349,189.471612 2.04462684,196.003633 5.03642801,202.001679 C8.02822918,207.999725 12.0587897,213.217125 17.1282306,217.654036 C22.1976715,222.090947 28.0980797,225.541826 34.8296324,228.006776 C41.561185,230.471727 48.8328149,231.704184 56.6447402,231.704184 C66.1187772,231.704184 74.7200766,229.526843 82.4488963,225.172098 C90.177716,220.817352 96.9091676,215.435624 102.643453,209.026753 C106.813426,204.366221 110.434014,199.466766 113.505269,194.328308 C113.586234,195.779367 113.696482,197.203285 113.836015,198.600065 C114.50086,205.255431 116.03829,210.924732 118.448352,215.608138 C120.858414,220.291544 124.182588,223.865669 128.420973,226.330619 C132.659358,228.79557 138.019588,229.945862 144.501824,229.781532 C150.817848,229.617202 155.970318,226.946879 159.959386,221.770484 C163.948454,216.594088 167.189523,210.267476 169.682691,202.79046 C172.175859,195.313444 174.253467,187.384639 175.915579,179.003807 C177.577691,170.622976 179.239778,163.146071 180.901889,156.57287 C181.899156,152.464619 183.228826,147.000728 184.890938,140.181032 C186.553049,133.361335 188.339793,125.925513 190.251221,117.873342 C192.16265,109.82117 194.157154,101.440464 196.234794,92.7309728 C198.312433,84.0214812 200.34849,75.7229392 202.343024,67.8350978 C204.337558,59.9472563 206.248958,52.7579254 208.077281,46.2668892 C209.905604,39.775853 211.56769,34.6406166 213.063591,30.8610259 C213.396013,33.1616463 213.728431,35.6676417 214.060853,38.3790872 C214.393276,41.0905327 214.47638,44.0895108 214.310169,47.3761114 C214.310169,51.8130222 213.977751,57.1125861 213.312907,63.2749622 C212.648062,69.4373384 211.941675,76.0515228 211.193725,83.1177141 C210.445774,90.1839054 209.697835,97.5786458 208.949885,105.302157 C208.201935,113.025669 207.661757,120.6669 207.329334,128.226082 C206.664489,143.508775 207.163116,156.408488 208.825227,166.92561 C210.487339,177.442732 212.315635,184.508818 214.310169,188.124078 C216.304703,192.067999 219.213355,194.03993 223.036212,194.03993 C224.033479,194.03993 225.072283,193.875602 226.152656,193.546942 C227.233028,193.218282 228.521146,192.807463 230.017046,192.314473 L239.989667,184.673165 C239.657245,183.522855 239.449484,182.290398 239.366378,180.975758 C239.283273,179.661117 239.24172,178.510824 239.24172,177.524844 L239.24172,174.073931 C239.574143,170.623 240.779156,165.693173 242.856795,159.284302 C244.934435,152.875431 247.552222,145.645018 250.710234,137.592847 C253.868247,129.540675 257.441733,121.036724 261.430802,112.080737 C265.41987,103.12475 269.491982,94.3743076 273.647262,85.8291461 C276.14043,80.5705851 278.758216,75.1066936 281.500701,69.4373075 C284.243185,63.7679215 286.944076,58.30403 289.603455,53.045469 C292.262834,47.7869081 294.797516,42.8570811 297.207578,38.2558403 C299.61764,33.6545995 301.653697,29.7107379 303.315809,26.4241373 C302.983386,27.7387775 302.692521,29.2588075 302.443204,30.9842728 C302.193887,32.7097381 301.903022,34.5584233 301.5706,36.5303836 C301.071966,38.9953341 299.825401,44.1716524 297.830867,52.0594938 C295.836333,59.9473352 293.467859,69.3550883 290.725375,80.2830353 C287.98289,91.2109823 285.074239,102.878239 281.999332,115.285157 C278.924425,127.692074 276.098877,139.605822 273.522604,151.026759 C270.946331,162.447696 268.744066,172.677087 266.915743,181.715239 C265.08742,190.753391 264.007064,197.244329 263.674641,201.18825 C263.342219,205.460831 263.674636,209.363611 264.671903,212.896706 C265.66917,216.429802 267.248153,219.469862 269.408898,222.016977 C271.569643,224.564093 274.228982,226.536024 277.386995,227.932829 C280.545007,229.329634 284.201598,229.945862 288.356877,229.781532 C292.179734,229.781532 296.085639,229.124222 300.074707,227.809582 C304.063775,226.494942 308.135888,224.440847 312.291167,221.647237 C309.133155,221.975897 306.390712,221.729405 304.063755,220.907755 C301.736799,220.086105 299.742294,218.812566 298.080183,217.087101 C296.418071,215.361636 295.088401,213.348623 294.091134,211.048003 C293.093867,208.747382 292.345928,206.364633 291.847295,203.899682 C290.517605,198.148131 290.018979,191.492865 290.351402,183.933683 C290.850035,177.196152 291.971944,168.89761 293.717161,159.037808 C295.462378,149.178007 297.498435,138.61996 299.825391,127.363353 C302.152348,116.106746 304.603926,104.644899 307.180199,92.9774666 C309.756472,81.3100345 312.166498,70.3411695 314.410349,60.0705427 C316.6542,49.7999158 318.5656,40.6386541 320.144606,32.5864826 C321.723612,24.5343112 322.679312,18.536355 323.011734,14.5924343 C323.344157,11.3058337 323.427261,8.88200214 323.26105,7.32086686 C323.094839,5.75973157 322.845526,4.65052051 322.513103,3.99320039 C322.346892,3.66454033 321.806714,3.08939385 320.892553,2.2677437 C319.978391,1.44609355 318.440961,0.788783295 316.280215,0.295793206 C315.44916,-0.0328668539 313.828625,0.00821503732 311.418563,0.419040112 C309.008501,0.829865186 306.432266,1.52825734 303.689782,2.51423752 C300.947297,3.5002177 298.371063,4.65051065 295.961001,5.96515089 C293.550939,7.27979113 291.8473,8.75873921 290.850033,10.4020395 C289.520343,12.7026599 287.401183,16.810849 284.492487,22.7267301 C281.583791,28.6426112 278.425826,35.13355 275.018497,42.1997413 C271.611168,49.2659326 268.245442,56.3320179 264.921219,63.3982091 C261.596995,70.4644004 258.937656,76.298029 256.943122,80.8992698 C255.613433,84.3502004 253.785137,88.663799 251.458181,93.840195 C249.131224,99.0165909 246.638094,104.603728 243.978715,110.601774 C241.319336,116.59982 238.659998,122.844268 236.000619,129.335304 C233.34124,135.82634 230.931214,142.029706 228.770469,147.945587 C228.438046,145.644966 228.147181,143.303299 227.897864,140.920513 C227.648548,138.537728 227.523891,135.949569 227.523891,133.155958 C227.191469,127.897397 227.316125,121.283213 227.897864,113.313206 C228.479604,105.3432 229.144438,97.1679033 229.892389,88.7870718 C230.640339,80.4062403 231.346726,72.3952715 232.01157,64.7539251 C232.676415,57.1125787 232.925728,50.9913769 232.759517,46.3901361 C232.759517,42.9392055 232.676413,39.0775077 232.510201,34.8049269 C232.34399,31.1896663 232.219334,26.9993134 232.136228,22.2337425 C232.053123,17.4681716 231.845362,12.3740171 231.512939,6.95112614 C231.512939,5.6364859 231.346731,4.44511105 231.014308,3.37696586 C230.681886,2.30882067 230.017051,1.44610095 229.019784,0.78878083 C228.022517,0.131460711 226.568191,-0.115030636 224.656763,0.0492993935 C222.745334,0.213629423 220.127547,0.870939683 216.803324,2.02124989 C214.310156,2.84290004 212.066339,3.66453787 210.071805,4.48618801 C208.243482,5.30783816 206.622947,6.0883941 205.210152,6.82787923 C203.797357,7.56736437 203.09097,8.3479203 203.09097,9.16957045 C199.101902,18.8650422 195.569968,27.8619764 192.495061,36.1606429 C189.420154,44.4593094 186.885472,51.7308041 184.890938,57.9753453 C182.39777,65.2058666 180.320161,71.861133 178.65805,77.9413441 C173.505503,92.4023867 169.599599,106.246984 166.94022,119.475551 C164.280841,132.704119 161.787711,144.576785 159.460755,155.093907 C158.297277,160.352468 157.009159,165.569868 155.596364,170.746264 C154.183569,175.92266 152.729243,180.729242 151.233343,185.166152 C149.737442,189.603063 148.324668,193.505843 146.994979,196.874608 C145.665289,200.243374 144.501829,202.749369 143.504562,204.39267 C142.673506,206.03597 141.80091,207.432754 140.886749,208.583065 C139.972587,209.733375 139.099992,210.308521 138.268936,210.308521 C137.43788,210.308521 136.523732,209.527965 135.526465,207.96683 C134.529198,206.405695 133.61505,204.187273 132.783994,201.311497 C131.952938,198.435722 131.329656,194.984843 130.914128,190.958757 C130.4986,186.932671 130.457048,182.454745 130.78947,177.524844 C131.288104,171.773293 132.451565,165.528846 134.279887,158.791315 C136.10821,152.053783 138.850654,144.905534 142.5073,137.346353 C143.836989,134.717072 145.166658,132.252159 146.496348,129.951538 C147.826037,127.650918 148.324663,125.596823 147.992241,123.789193 C147.82603,123.296203 147.493612,122.721057 146.994979,122.063736 C146.496345,121.570746 145.831511,121.118846 145.000455,120.708021 C144.169399,120.297195 143.089042,119.927458 141.759353,119.598798 C135.443328,126.00767 130.415516,132.580772 126.675764,139.318303 C122.936013,146.055835 120.152017,152.218118 118.323694,157.805339 C117.122381,161.459853 116.126581,165.038144 115.336287,168.540246 Z" id="em-logo"></path>
                </g>
            </g>
        </g>
    </g>
</svg>