<?xml version="1.0" encoding="UTF-8" standalone="no"?>
<svg width="782px" height="452px" viewBox="0 0 782 452" version="1.1" xmlns="http://www.w3.org/2000/svg" xmlns:xlink="http://www.w3.org/1999/xlink">
    <!-- Generator: Sketch 3.8.3 (29802) - http://www.bohemiancoding.com/sketch -->
    <title>melon-top-gf</title>
    <desc>Created with Sketch.</desc>
    <defs>
        <path d="M745.825549,26.5213824 C684.170496,26.5424677 622.515443,26.5348003 560.86039,26.5348003 C465.982425,26.5348003 371.10446,26.5405509 276.224578,26.5117982 C272.407681,26.5117982 268.590785,26.1801836 264.777722,26 C263.10795,28.6203299 261.384499,31.2157408 259.768405,33.8744076 C251.722441,47.1179038 240.568898,56.6810537 224.799038,57.3711186 C214.396988,57.8273282 203.853075,55.0306484 192.237517,53.5431751 C182.56779,70.6510349 167.202433,82.6945848 144.542605,79.8576512 C121.961377,77.0322186 109.028788,62.1440677 102.807879,40.7175515 C85.882023,49.9299184 69.6808211,49.7612359 54.2176932,39.6326161 C48.7310242,36.0366111 43.4418139,29.446491 39.7111857,27.6714906 C37.5870665,26.6613122 26.7057481,27.7270792 25.453898,27.867009 C24.9535414,73.7429091 22.9214418,117.815056 34.5657561,162.872463 C48.0159552,214.92061 73.6204105,260.200371 110.382243,299.357722 C168.663244,361.43673 240.785527,397.929664 324.046017,411.362928 C402.435219,424.010285 479.095219,415.833015 552.350493,383.357793 C619.825786,353.445395 674.274554,308.288312 712.740667,244.913516 C734.658586,208.803951 750.020109,169.905374 753.307893,127.560307 C755.721491,96.451796 754.845387,65.0960122 755.805842,33.8609897 C756.060813,25.6185474 751.007403,26.5194655 745.825549,26.5213824" id="path-1"></path>
        <path d="M560.86039,26.5348003 C465.982425,26.5348003 371.10446,26.5405509 276.224578,26.5117982 C272.407681,26.5117982 268.590785,26.1801836 264.777722,26 C263.10795,28.6203299 261.384499,31.2157408 259.768405,33.8744076 C251.722441,47.1179038 240.568898,56.6810537 224.799038,57.3711186 C214.396988,57.8273282 203.853075,55.0306484 192.237517,53.5431751 C182.56779,70.6510349 167.202433,82.6945848 144.542605,79.8576512 C121.961377,77.0322186 109.028788,62.1440677 102.807879,40.7175515 C85.882023,49.9299184 69.6808211,49.7612359 54.2176932,39.6326161 C48.7310242,36.0366111 43.4418139,29.446491 39.7111857,27.6714906 C37.5870665,26.6613122 26.7057481,27.7270792 25.453898,27.867009 C24.9535414,73.7429091 22.9214418,117.815056 34.5657561,162.872463 C48.0159552,214.92061 73.6204105,260.200371 110.382243,299.357722 C168.663244,361.43673 240.785527,397.929664 324.046017,411.362928 C402.435219,424.010285 479.095219,415.833015 552.350493,383.357793 C619.825786,353.445395 674.274554,308.288312 712.740667,244.913516 C734.658586,208.803951 750.020109,169.905374 753.307893,127.560307 C755.721491,96.451796 754.845387,65.0960122 755.805842,33.8609897 C756.060813,25.6185474 751.007403,26.5194655 745.825549,26.5213824 C684.170496,26.5424677 622.515443,26.5348003 560.86039,26.5348003 Z" id="path-3"></path>
    </defs>
    <g id="Brand" stroke="none" stroke-width="1" fill="none" fill-rule="evenodd">
        <g id="melon-top-gf">
            <mask id="mask-2" fill="white">
                <use xlink:href="#path-1"></use>
            </mask>
            <use id="melon-white-gf" stroke="#54B400" stroke-width="30" fill="#F7F6ED" xlink:href="#path-1"></use>
            <mask id="mask-4" fill="white">
                <use xlink:href="#path-3"></use>
            </mask>
            <use id="melon-white-gf" stroke="#D8FD94" stroke-width="16" fill="#F7F6ED" xlink:href="#path-3"></use>
        </g>
    </g>
</svg>