<?xml version="1.0" encoding="UTF-8" standalone="no"?>
<svg width="100px" height="90px" viewBox="0 0 100 90" version="1.1" xmlns="http://www.w3.org/2000/svg" xmlns:xlink="http://www.w3.org/1999/xlink">
    <!-- Generator: Sketch 3.8.3 (29802) - http://www.bohemiancoding.com/sketch -->
    <title>seeds1</title>
    <desc>Created with Sketch.</desc>
    <defs></defs>
    <g id="Website" stroke="none" stroke-width="1" fill="none" fill-rule="evenodd">
        <g id="Desktop-HD" transform="translate(-377.000000, -710.000000)">
            <g id="Group" transform="translate(-20.000000, 0.000000)">
                <g id="PORTFOLIO" transform="translate(273.000000, 710.000000)">
                    <g id="Header" transform="translate(165.000000, 52.000000)" font-size="36" font-family="Raleway-Light, Raleway" fill="#8B8B8B" font-weight="300">
                        <text id="Web-/-UX-/-Branding">
                            <tspan x="125.135906" y="34">Web / UX / Branding</tspan>
                        </text>
                    </g>
                    <g id="Seeds-1" transform="translate(124.000000, 0.000000)" fill="#2F2F2F">
                        <g id="seeds1" transform="translate(0.000000, 0.461700)">
                            <path d="M67.3372293,77.565833 C69.6317139,81.3660292 68.4513713,86.5508039 65.2202186,88.4987918 C62.0144193,90.4326944 56.4084961,89.3185524 54.9788448,85.6324466 C53.364677,81.4744855 52.7815483,76.8657969 52.1547554,72.3951435 C51.8575569,70.2837669 53.2660803,69.3062517 55.5718332,69.9936111 C60.4241964,71.4359391 64.3610193,74.1910109 67.3372293,77.565833" id="Fill-1"></path>
                            <path d="M78.8801321,22.8352689 C81.5802715,16.3616952 83.9536335,9.6233192 87.0861896,3.49765086 C89.4863135,-1.1969577 92.1498313,-1.15611052 93.9668265,3.56244293 C96.2782134,9.5627527 98.2459206,15.9687172 99.3952757,22.5366619 C100.350255,27.9960987 98.4797355,33.1935501 94.4414989,36.5754148 C91.0568171,39.4093639 87.5284659,39.6164169 84.2747768,37.0613554 C80.4295079,34.0414812 78.7998463,29.4342011 78.8801321,22.8352689" id="Fill-3"></path>
                            <path d="M7.63958109,54.8000722 C2.35198418,53.1901299 -1.7186485,46.2137134 0.7293652,41.228949 C3.37879775,35.8343044 6.93109381,30.7439007 10.8270696,26.1436632 C13.7948284,22.639257 16.7217401,23.3970426 18.0950504,27.8944578 C19.9796548,34.0736501 21.0557667,40.502151 21.9191915,44.3375602 C19.5077994,53.1394231 13.4666425,56.5748117 7.63958109,54.8000722" id="Fill-6"></path>
                        </g>
                    </g>
                </g>
            </g>
        </g>
    </g>
</svg>