<?xml version="1.0" encoding="UTF-8" standalone="no"?>
<svg width="290px" height="274px" viewBox="0 0 290 274" version="1.1" xmlns="http://www.w3.org/2000/svg" xmlns:xlink="http://www.w3.org/1999/xlink">
    <!-- Generator: Sketch 3.8.3 (29802) - http://www.bohemiancoding.com/sketch -->
    <title>seeds5</title>
    <desc>Created with Sketch.</desc>
    <defs></defs>
    <g id="01_Brand" stroke="none" stroke-width="1" fill="none" fill-rule="evenodd">
        <g id="seeds5" fill="#2F2F2F">
            <path d="M26.1048521,260.722936 C22.8990528,262.656839 17.2931296,261.542697 15.8634783,257.856591 C14.2493105,253.69863 13.6661818,249.089941 13.0393889,244.619288 C12.7421904,242.507911 14.1507139,241.530396 16.4564667,242.217755 C21.3088299,243.660083 25.2456528,246.415155 28.2218628,249.789977 C30.5163475,253.590174 29.3360048,258.774948 26.1048521,260.722936 Z" id="Fill-1"></path>
            <path d="M169.002821,225.835269 C171.70296,219.361695 174.076322,212.623319 177.208878,206.497651 C179.609002,201.803042 182.27252,201.843889 184.089515,206.562443 C186.400902,212.562753 188.368609,218.968717 189.517964,225.536662 C190.472943,230.996099 188.602424,236.19355 184.564187,239.575415 C181.179506,242.409364 177.651154,242.616417 174.397465,240.061355 C170.552196,237.041481 168.922535,232.434201 169.002821,225.835269" id="Fill-3"></path>
            <path d="M154.639581,141.855174 C149.351984,140.245232 145.281351,133.268815 147.729365,128.284051 C150.378798,122.889406 153.931094,117.799003 157.82707,113.198765 C160.794828,109.694359 163.72174,110.452144 165.09505,114.94956 C166.979655,121.128752 168.055767,127.557253 168.919192,131.392662 C166.507799,140.194525 160.466642,143.629914 154.639581,141.855174" id="Fill-6"></path>
            <path d="M242.518459,61.8605288 C232.501552,58.8106287 224.790081,45.594395 229.427637,36.1511785 C234.446763,25.9314783 241.176289,16.2881371 248.556887,7.57337445 C254.179057,0.934571786 259.723844,2.37013281 262.325465,10.8901074 C265.89569,22.596067 267.934293,34.7743207 269.569979,42.0401807 C265.001799,58.7145689 253.557336,65.2226234 242.518459,61.8605288" id="Fill-6" transform="translate(248.807947, 33.063000) rotate(30.000000) translate(-248.807947, -33.063000) "></path>
        </g>
    </g>
</svg>