<svg xmlns="http://www.w3.org/2000/svg" width="290" height="274" viewBox="0 0 290 274" version="1.1"><title>seeds5</title><desc>Created with Sketch.</desc><g stroke="none" stroke-width="1" fill="none" fill-rule="evenodd"><g fill="#2F2F2F"><path d="M26.1 260.7C22.9 262.7 17.3 261.5 15.9 257.9 14.2 253.7 13.7 249.1 13 244.6 12.7 242.5 14.2 241.5 16.5 242.2 21.3 243.7 25.2 246.4 28.2 249.8 30.5 253.6 29.3 258.8 26.1 260.7ZM169 225.8C171.7 219.4 174.1 212.6 177.2 206.5 179.6 201.8 182.3 201.8 184.1 206.6 186.4 212.6 188.4 219 189.5 225.5 190.5 231 188.6 236.2 184.6 239.6 181.2 242.4 177.7 242.6 174.4 240.1 170.6 237 168.9 232.4 169 225.8M154.6 141.9C149.4 140.2 145.3 133.3 147.7 128.3 150.4 122.9 153.9 117.8 157.8 113.2 160.8 109.7 163.7 110.5 165.1 114.9 167 121.1 168.1 127.6 168.9 131.4 166.5 140.2 160.5 143.6 154.6 141.9M242.5 61.9C232.5 58.8 224.8 45.6 229.4 36.2 234.4 25.9 241.2 16.3 248.6 7.6 254.2 0.9 259.7 2.4 262.3 10.9 265.9 22.6 267.9 34.8 269.6 42 265 58.7 253.6 65.2 242.5 61.9"/></g></g></svg>