<?xml version="1.0" encoding="UTF-8" standalone="no"?>
<svg width="88px" height="90px" viewBox="0 0 88 90" version="1.1" xmlns="http://www.w3.org/2000/svg" xmlns:xlink="http://www.w3.org/1999/xlink">
    <!-- Generator: Sketch 3.8.3 (29802) - http://www.bohemiancoding.com/sketch -->
    <title>seeds2</title>
    <desc>Created with Sketch.</desc>
    <defs></defs>
    <g id="Website" stroke="none" stroke-width="1" fill="none" fill-rule="evenodd">
        <g id="Desktop-HD" transform="translate(-1018.000000, -1830.000000)" fill="#2F2F2F">
            <g id="Group" transform="translate(-20.000000, -101.000000)">
                <g id="ABOUT-LINK" transform="translate(598.000000, 1930.000000)">
                    <g id="seeds2" transform="translate(440.000000, 0.000000)">
                        <g id="Group-3" transform="translate(0.000000, 1.000000)">
                            <path d="M15.2218628,77.7899773 C17.5163475,81.5901735 16.3360048,86.7749482 13.1048521,88.7229361 C9.89905281,90.6568388 4.2931296,89.5426967 2.86347833,85.856591 C1.24931049,81.6986298 0.666181799,77.0899412 0.0393888775,72.6192879 C-0.257809564,70.5079113 1.15071385,69.530396 3.45646669,70.2177554 C8.30882987,71.6600834 12.2456528,74.4151552 15.2218628,77.7899773" id="Fill-1"></path>
                            <path d="M67.0028207,53.8352689 C69.7029601,47.3616952 72.076322,40.6233192 75.2088781,34.4976509 C77.609002,29.8030423 80.2725198,29.8438895 82.089515,34.5624429 C84.400902,40.5627527 86.3686092,46.9687172 87.5179643,53.5366619 C88.4729432,58.9960987 86.6024241,64.1935501 82.5641874,67.5754148 C79.1795056,70.4093639 75.6511545,70.6164169 72.3974654,68.0613554 C68.5521965,65.0414812 66.9225349,60.4342011 67.0028207,53.8352689" id="Fill-3"></path>
                            <path d="M23.6395811,30.8551741 C18.3519842,29.2452318 14.2813515,22.2688153 16.7293652,17.2840509 C19.3787978,11.8894062 22.9310938,6.7990026 26.8270696,2.19876512 C29.7948284,-1.30564115 32.7217401,-0.547855551 34.0950504,3.94955972 C35.9796548,10.128752 37.0557667,16.5572528 37.9191915,20.3926621 C35.5077994,29.194525 29.4666425,32.6299136 23.6395811,30.8551741" id="Fill-6"></path>
                        </g>
                    </g>
                </g>
            </g>
        </g>
    </g>
</svg>