<?xml version="1.0" encoding="UTF-8" standalone="no"?>
<svg width="127px" height="58px" viewBox="0 0 127 58" version="1.1" xmlns="http://www.w3.org/2000/svg" xmlns:xlink="http://www.w3.org/1999/xlink">
    <!-- Generator: Sketch 3.8.3 (29802) - http://www.bohemiancoding.com/sketch -->
    <title>seeds3</title>
    <desc>Created with Sketch.</desc>
    <defs></defs>
    <g id="01_Brand" stroke="none" stroke-width="1" fill="none" fill-rule="evenodd">
        <g id="seeds3" fill="#2F2F2F">
            <path d="M94.3223218,45.9906459 C85.8254308,43.4035531 79.2841375,32.1928176 83.2179672,24.1825626 C87.4754664,15.5136515 93.1838199,7.33363972 99.4444487,-0.0587007151 C104.213482,-5.69009784 108.916875,-4.47237611 111.123713,2.75473442 C114.152173,12.6843724 115.881429,23.0146362 117.268907,29.1779378 C113.393926,43.3220699 103.686104,48.8425593 94.3223218,45.9906459" id="Fill-6" transform="translate(99.657411, 21.563000) rotate(30.000000) translate(-99.657411, -21.563000) "></path>
            <path d="M9.63905218,48.7279629 C5.36442884,47.426446 2.07362929,41.7865394 4.05266376,37.7567333 C6.19453017,33.3955699 9.06629365,29.2803624 12.2158963,25.5614173 C14.6151055,22.7283692 16.9812928,23.3409817 18.0915107,26.9768027 C19.6150711,31.9722137 20.4850264,37.1691718 21.1830403,40.269811 C19.2336117,47.3854533 14.3497919,50.1627059 9.63905218,48.7279629" id="Fill-6" transform="translate(12.323034, 36.438881) rotate(-33.000000) translate(-12.323034, -36.438881) "></path>
        </g>
    </g>
</svg>