<?xml version="1.0" encoding="utf-8"?>
<!-- Generator: Adobe Illustrator 19.2.1, SVG Export Plug-In . SVG Version: 6.00 Build 0)  -->
<svg version="1.1" id="Layer_1" xmlns="http://www.w3.org/2000/svg" xmlns:xlink="http://www.w3.org/1999/xlink" x="0px" y="0px"
	 viewBox="0 0 172 91" style="enable-background:new 0 0 172 91;" xml:space="preserve">
<style type="text/css">
	.st0{fill:#54B400;}
	.st1{fill:#D8FD94;}
	.st2{fill:#DF0067;}
	.st3{fill:#2F2F2F;}
	.st4{fill:#F0FFCF;}
</style>
<title>watermelon-gf</title>
<desc>Created with Sketch.</desc>
<g id="Website">
	<g id="Desktop-HD" transform="translate(-634.000000, -2005.000000)">
		<g id="Group" transform="translate(-20.000000, 0.000000)">
			<g id="FOOTER" transform="translate(0.000000, 1997.000000)">
				
					<image style="overflow:visible;enable-background:new    ;" width="469" height="253" id="watermelon-gf" xlink:href="B7EEAB7E263A287B.png"  transform="matrix(0.3881 0 0 0.3834 650 6)">
				</image>
			</g>
		</g>
		<g>
			<path class="st0" d="M569.1,1917.5c-10.1,0-22.8,0.3-22.9,4.7c-0.5,16.8,0,33.6-1.3,50.3c-1.8,22.7-10,43.6-21.8,63
				c-20.7,34-49.9,58.3-86.2,74.4c-39.3,17.4-80.5,21.8-122.6,15c-44.7-7.2-83.5-26.8-114.8-60.2c-19.7-21-33.5-45.4-40.7-73.3
				c-6.3-24.2-5.2-48.9-4.9-73.6c-6.8,0-13.6,0-20.4,0c-2.8,10.6-3.5,42.1-1.3,58.1c5.9,42.1,23.8,78.5,53.6,108.7
				c40.7,41.4,90.8,62.9,148.3,67.1c35.1,2.6,69.4-2.3,102.3-15.2c48.8-19.2,87-50.7,112.3-97.1c13.1-24,20.3-49.8,21.5-77
				C570.9,1947.8,569.6,1932.9,569.1,1917.5z"/>
			<path class="st1" d="M565.2,1917c-9.8,0-14.7,1.1-23.3,0c-8.3-1-2.2,37.2-3.5,53.5c-1.7,22.1-9.7,42.4-21.2,61.2
				c-20.1,33.1-48.5,56.6-83.7,72.2c-38.2,16.9-78.2,21.2-119.1,14.6c-43.4-7-81.1-26-111.5-58.4c-19.2-20.4-32.5-44-39.5-71.2
				c-6.1-23.5-5-47.5-4.8-71.4c-6.6,0-14.4-0.5-20.9-0.5c-2.7,10.3-3.5,40.7-1.3,56.3c5.7,40.9,27.6,86.4,58.7,113.3
				c36.3,31.5,80.2,56.6,136,60.7c34.1,2.5,81.2-4.1,112-19.3c48.4-23.9,70.4-42.7,100-86.7c14.8-22,22.2-56.2,23.3-82.7
				C567.2,1944.2,565.7,1931.9,565.2,1917z"/>
			<g>
				<path class="st2" d="M534.5,1917.8c-32.2,0-64.3,0-96.5,0c-49.5,0-99,0-148.5,0c-2,0-4-0.2-6-0.3c-0.9,1.4-1.8,2.7-2.6,4.1
					c-4.2,6.9-10,11.9-18.2,12.3c-5.4,0.2-10.9-1.2-17-2c-5,8.9-13.1,15.2-24.9,13.7c-11.8-1.5-18.5-9.2-21.8-20.4
					c-8.8,4.8-17.3,4.7-25.3-0.6c-2.9-1.9-5.6-5.3-7.6-6.2c-1.1-0.5-6.8,0-7.4,0.1c-0.3,23.9-1.3,46.9,4.8,70.4
					c7,27.2,20.4,50.8,39.5,71.2c30.4,32.4,68,51.4,111.5,58.4c40.9,6.6,80.9,2.3,119.1-14.6c35.2-15.6,63.6-39.2,83.7-72.2
					c11.4-18.8,19.4-39.1,21.2-61.2c1.3-16.2,0.8-32.6,1.3-48.9C539.9,1917.3,537.2,1917.8,534.5,1917.8z"/>
				<path class="st3" d="M284.8,2052.7c1.6,2.7,0.8,6.4-1.5,7.8c-2.3,1.4-6.3,0.6-7.3-2c-1.1-3-1.6-6.2-2-9.4
					c-0.2-1.5,0.8-2.2,2.4-1.7C279.9,2048.3,282.7,2050.3,284.8,2052.7z"/>
				<path class="st3" d="M436.2,1973.9c-2.1,6.1-6.6,9-9.6,7.7c-3.2-1.3-4.8-6.7-2.6-10.6c2-3.7,4.6-7.1,7.2-10.2
					c2.1-2.5,3.6-2.2,4.1,0.9C435.9,1966.2,436,1971,436.2,1973.9z"/>
				<path class="st3" d="M434.1,2059.1c0,4.8-4,8.8-8,8.5c-4.1-0.3-8-4.5-7.1-8.6c0.8-4.1,2.5-8.1,4.1-11.9c1-2.4,2.9-2.9,4.9-0.6
					C431.3,2050.3,433.3,2054.7,434.1,2059.1z"/>
				<path class="st3" d="M467.5,1994.2c1.2-1.6,3-4.4,5.1-7c1.1-1.4,2.7-1.4,3.2,0.5c0.9,3.4,1.9,6.8,2.1,10.3
					c0.2,2.9-3.5,5.3-6.4,4.8C468.3,2002.2,466.3,1998.9,467.5,1994.2z"/>
				<path class="st3" d="M308,2009c1.9-4.6,3.6-9.4,5.8-13.7c1.7-3.3,3.6-3.3,4.9,0c1.6,4.3,3,8.8,3.9,13.5c0.7,3.9-0.6,7.6-3.5,10
					c-2.4,2-4.9,2.2-7.2,0.3C309.1,2017,307.9,2013.7,308,2009z"/>
				<path class="st3" d="M228.2,1993.3c-3.8-1.1-6.6-6.1-4.9-9.6c1.9-3.8,4.4-7.4,7.2-10.7c2.1-2.5,4.2-2,5.2,1.2
					c1.3,4.4,2.1,9,2.7,11.7C236.7,1992.1,232.4,1994.5,228.2,1993.3"/>
			</g>
			<path class="st4" d="M546.3,1917c-9,0,0.5,1-7.3,0c-7.6-0.9,1.2,31,0,46c-1.6,20.3-9.6,46-20.1,63.3
				c-18.4,30.4-55.4,61.5-87.7,75.8c-35,15.6-79.9,20.5-117.4,14.4c-39.8-6.4-81.9-27.9-109.8-57.7c-17.6-18.8-32.8-53.6-39.2-78.6
				c-5.6-21.6-4.6-40.3-4.4-62.3c-6.1,0,0-1-6-1c-2.5,9.5-3.2,37.4-1.2,51.7c5.2,37.6,25.3,79.4,53.8,104.2
				c33.3,29,73.5,52,124.7,55.8c31.3,2.3,74.5-3.8,102.7-17.8c44.4-21.9,64.5-39.3,91.7-79.7c13.6-20.2,20.4-51.7,21.4-76
				C548,1942.1,546.7,1930.8,546.3,1917z"/>
		</g>
	</g>
</g>
</svg>
